<svg xmlns="http://www.w3.org/2000/svg" xmlns:xlink="http://www.w3.org/1999/xlink" width="500" zoomAndPan="magnify" viewBox="0 0 375 374.999991" height="500" preserveAspectRatio="xMidYMid meet" version="1.0"><defs><g/><clipPath id="60842a0333"><path d="M 255 146 L 282 146 L 282 220.289062 L 255 220.289062 Z M 255 146 " clip-rule="nonzero"/></clipPath><clipPath id="274292d92e"><path d="M 290 134 L 295.28125 134 L 295.28125 140 L 290 140 Z M 290 134 " clip-rule="nonzero"/></clipPath><clipPath id="0c983fd4c5"><path d="M 94.316406 146 L 121 146 L 121 220 L 94.316406 220 Z M 94.316406 146 " clip-rule="nonzero"/></clipPath></defs><path fill="#cbdad5" d="M 283.707031 150.957031 L 277.679688 150.957031 L 277.679688 144.929688 L 283.707031 144.929688 L 283.707031 150.957031 " fill-opacity="1" fill-rule="nonzero"/><path fill="#cbdad5" d="M 282.285156 163.003906 L 277.679688 163.003906 L 277.679688 158.402344 L 282.285156 158.402344 L 282.285156 163.003906 " fill-opacity="1" fill-rule="nonzero"/><g clip-path="url(#60842a0333)"><path fill="#cbdad5" d="M 264.757812 155.558594 L 264.757812 150.957031 L 269.359375 150.957031 L 269.359375 155.558594 Z M 276.464844 177.078125 C 275.308594 176.195312 274.449219 174.726562 273.886719 172.671875 C 273.574219 171.515625 273.390625 169.292969 273.332031 166.015625 L 269.359375 166.015625 L 269.359375 159.992188 L 273.242188 159.992188 C 273.144531 157.667969 272.945312 155.859375 272.632812 154.5625 C 272.1875 152.675781 271.332031 151.085938 270.074219 149.789062 C 268.816406 148.492188 267.265625 147.574219 265.417969 147.035156 C 263.570312 146.496094 260.914062 146.230469 257.449219 146.230469 L 255.410156 146.230469 L 255.410156 155.429688 C 258.308594 155.429688 260.175781 155.601562 261.011719 155.949219 C 261.84375 156.292969 262.421875 156.789062 262.742188 157.429688 C 263.0625 158.070312 263.234375 159.355469 263.261719 161.277344 C 263.390625 167.386719 263.59375 171.335938 263.878906 173.132812 C 264.3125 175.753906 265.132812 177.90625 266.339844 179.601562 C 267.214844 180.78125 268.597656 181.988281 270.5 183.21875 C 269.035156 184.066406 267.835938 185.046875 266.898438 186.164062 C 265.960938 187.28125 265.210938 188.640625 264.648438 190.242188 C 264.082031 191.847656 263.738281 193.984375 263.609375 196.652344 C 263.402344 201.066406 263.292969 204.054688 263.28125 205.621094 C 263.269531 207.1875 263.0625 208.296875 262.664062 208.949219 C 262.265625 209.605469 261.644531 210.105469 260.796875 210.453125 C 259.953125 210.800781 258.15625 210.972656 255.410156 210.972656 L 255.410156 220.210938 L 257.449219 220.210938 C 260.8125 220.210938 263.273438 219.980469 264.839844 219.515625 C 267.175781 218.824219 268.945312 217.882812 270.152344 216.6875 C 271.359375 215.496094 272.1875 213.910156 272.632812 211.933594 C 273.082031 209.957031 273.308594 206.480469 273.308594 201.503906 C 273.308594 198.476562 273.410156 196.34375 273.617188 195.113281 C 273.898438 193.472656 274.378906 192.105469 275.058594 191.015625 C 275.738281 189.921875 276.554688 189.148438 277.503906 188.683594 C 278.453125 188.222656 279.867188 187.941406 281.738281 187.839844 L 281.738281 178.601562 C 279.375 178.472656 277.621094 177.964844 276.464844 177.078125 " fill-opacity="1" fill-rule="nonzero"/></g><g clip-path="url(#274292d92e)"><path fill="#cbdad5" d="M 295.453125 139.253906 L 290.847656 139.253906 L 290.847656 134.652344 L 295.453125 134.652344 L 295.453125 139.253906 " fill-opacity="1" fill-rule="nonzero"/></g><path fill="#cbdad5" d="M 272.371094 144.929688 L 263.777344 144.929688 L 263.777344 136.339844 L 272.371094 136.339844 L 272.371094 144.929688 " fill-opacity="1" fill-rule="nonzero"/><g fill="#ffffff" fill-opacity="1"><g transform="translate(130.611042, 179.485387)"><g><path d="M 20.9375 -0.609375 L 20.40625 -1.0625 L 19.484375 -2.09375 L 13.984375 -7.5625 L 13.390625 -7.953125 L 12.921875 -8.484375 L 10.40625 -10.90625 L 9.9375 -11.5 L 9.484375 -11.671875 L 9.234375 -11.078125 L 9.15625 -10.359375 L 9.125 -1.390625 L 8.765625 -0.28125 L 8.0625 0.078125 L 7.3125 0.109375 L 5.921875 0 L 5.140625 0.078125 L 3.6875 0 L 2.953125 -0.25 L 2.625 -0.921875 L 2.5625 -3.90625 L 2.625 -4.578125 L 2.5625 -10.40625 L 2.65625 -11 L 2.59375 -12.453125 L 2.625 -13.0625 L 2.625 -23.828125 L 2.953125 -24.5 L 3.765625 -24.84375 L 4.828125 -24.59375 L 5.640625 -24.171875 L 6.171875 -23.75 L 13.171875 -16.6875 L 14.171875 -15.90625 L 16.6875 -13.390625 L 17.21875 -13.140625 L 17.4375 -13.734375 L 17.5 -20.09375 L 17.4375 -20.875 L 17.53125 -22.359375 L 17.4375 -22.9375 L 17.46875 -23.671875 L 17.859375 -24.421875 L 18.53125 -24.8125 L 22.9375 -24.84375 L 23.640625 -24.453125 L 24 -23.75 L 24.109375 -18.8125 L 24 -17.96875 L 24 -14.453125 L 24.109375 -13.84375 L 24.03125 -0.890625 L 23.671875 -0.171875 L 22.890625 0.078125 L 21.90625 -0.03125 Z M 20.9375 -0.609375 "/></g></g></g><g fill="#ffffff" fill-opacity="1"><g transform="translate(160.321491, 179.485387)"><g><path d="M 14.234375 0.46875 L 12.109375 0.359375 L 9.09375 -0.53125 L 8.40625 -0.8125 L 6 -2.09375 L 5.53125 -2.625 L 4.546875 -3.578125 L 2.875 -5.859375 L 2.515625 -6.5 L 2.3125 -7.234375 L 1.78125 -8.453125 L 1.390625 -10.6875 L 1.53125 -14.796875 L 1.8125 -16.328125 L 2.484375 -18.28125 L 2.796875 -18.890625 L 4.015625 -20.65625 L 4.96875 -21.71875 L 6.109375 -22.5 L 6.609375 -22.9375 L 8.40625 -24.0625 L 9.765625 -24.421875 L 10.40625 -24.703125 L 11.109375 -24.921875 L 11.828125 -25.0625 L 14.3125 -25.203125 L 15.96875 -25.171875 L 20.625 -23.71875 L 22.4375 -22.578125 L 23.96875 -21.1875 L 24.421875 -20.546875 L 24.84375 -20.125 L 25.3125 -19.53125 L 25.5625 -18.890625 L 26.203125 -17.71875 L 26.375 -16.890625 L 26.65625 -16.15625 L 26.9375 -14.84375 L 27.125 -12.390625 L 26.9375 -9.90625 L 26.796875 -9.125 L 26.59375 -8.5625 L 26.484375 -7.84375 L 26.234375 -7.171875 L 24.84375 -4.71875 L 24.390625 -4.078125 L 21.90625 -1.703125 L 18.75 -0.28125 L 17.390625 0.140625 Z M 13.234375 -5.78125 L 15.296875 -5.859375 L 15.96875 -6.03125 L 16.609375 -6.109375 L 17.1875 -6.421875 L 17.828125 -6.703125 L 18.921875 -7.5625 L 19.34375 -8.203125 L 19.671875 -8.734375 L 20.0625 -9.265625 L 20.375 -10.71875 L 20.59375 -12.5 L 20.453125 -14.015625 L 20.203125 -14.65625 L 19.984375 -15.375 L 19.703125 -16.015625 L 18.890625 -17.21875 L 17.78125 -18.03125 L 15.90625 -18.84375 L 14.203125 -18.953125 L 12.5625 -18.8125 L 11.828125 -18.640625 L 11.1875 -18.3125 L 10.15625 -17.609375 L 9.625 -17.140625 L 9.15625 -16.578125 L 8.84375 -15.96875 L 8.40625 -15.484375 L 8.203125 -14.84375 L 7.953125 -13.53125 L 7.921875 -12.453125 L 8.09375 -10.6875 L 8.765625 -8.703125 L 9.234375 -8.203125 L 9.578125 -7.703125 L 10.6875 -6.75 L 11.890625 -6.109375 L 12.53125 -6.03125 Z M 13.234375 -5.78125 "/></g></g></g><g fill="#ffffff" fill-opacity="1"><g transform="translate(191.735758, 179.485387)"><g><path d="M 12.21875 0.3125 L 11.53125 0.21875 L 10.75 -0.078125 L 10.046875 -0.671875 L 9.734375 -1.203125 L 8.3125 -4.578125 L 8.125 -5.296875 L 7.734375 -5.921875 L 7.140625 -7.140625 L 6.890625 -7.875 L 6 -9.734375 L 5.78125 -10.4375 L 2.59375 -17.609375 L 2.34375 -18.359375 L 1.953125 -18.890625 L 1.671875 -19.59375 L 1.484375 -20.265625 L 1.140625 -20.796875 L 0 -23.828125 L 0.28125 -24.53125 L 0.859375 -24.78125 L 2.203125 -24.78125 L 2.90625 -24.890625 L 4.9375 -24.8125 L 5.75 -24.453125 L 6.359375 -23.859375 L 7.34375 -21.15625 L 8.265625 -19.28125 L 10.046875 -14.65625 L 10.65625 -13.453125 L 10.796875 -12.78125 L 11.671875 -10.859375 L 12.0625 -10.796875 L 12.421875 -11.4375 L 13.140625 -13.421875 L 13.484375 -14.0625 L 13.625 -14.703125 L 13.953125 -15.296875 L 14.171875 -16.046875 L 17.46875 -23.859375 L 18.0625 -24.453125 L 18.84375 -24.921875 L 20.203125 -24.78125 L 20.90625 -24.8125 L 21.578125 -24.890625 L 22.21875 -24.78125 L 22.96875 -24.703125 L 23.609375 -24.5625 L 23.78125 -23.828125 L 23.53125 -22.859375 L 22.859375 -21.625 L 22.6875 -20.9375 L 22.078125 -19.671875 L 21.71875 -19.03125 L 18.640625 -11.71875 L 18 -10.578125 L 17.75 -9.796875 L 16.359375 -6.5625 L 15.96875 -5.921875 L 15.765625 -5.328125 L 15.40625 -4.578125 L 15.1875 -3.875 L 14.515625 -2.734375 L 14.3125 -1.984375 L 13.84375 -1 L 13.0625 0.03125 Z M 12.21875 0.3125 "/></g></g></g><g fill="#ffffff" fill-opacity="1"><g transform="translate(218.606513, 179.485387)"><g><path d="M 20.9375 0.078125 L 20.203125 0 L 19.390625 -0.359375 L 18.671875 -0.890625 L 18.453125 -1.53125 L 18.140625 -2.203125 L 17.46875 -2.765625 L 16.6875 -3.15625 L 15.90625 -3.046875 L 15.265625 -3.125 L 11.78125 -3.09375 L 11.140625 -3.1875 L 9.65625 -3.046875 L 8.984375 -3.15625 L 8.234375 -2.765625 L 7.5625 -2.09375 L 6.921875 -0.921875 L 6.25 -0.28125 L 5.4375 -0.03125 L 3.4375 0.03125 L 2.734375 -0.03125 L 1.34375 0.03125 L 0.640625 -0.171875 L 0.46875 -1.0625 L 0.671875 -1.78125 L 1.390625 -3.1875 L 1.5625 -3.828125 L 1.953125 -4.328125 L 2.484375 -5.75 L 3.125 -6.890625 L 3.375 -7.59375 L 3.734375 -8.125 L 3.9375 -8.90625 L 7.5625 -16.5 L 7.78125 -17.140625 L 8.171875 -17.828125 L 8.34375 -18.53125 L 8.734375 -19.0625 L 10.15625 -22.328125 L 10.46875 -22.828125 L 10.71875 -23.53125 L 11.046875 -24.140625 L 11.671875 -24.75 L 12.8125 -25.140625 L 13.984375 -24.78125 L 14.59375 -24.140625 L 15.265625 -22.890625 L 15.484375 -22.265625 L 15.875 -21.625 L 16.078125 -20.90625 L 18.421875 -15.96875 L 18.671875 -15.234375 L 19.421875 -13.921875 L 19.625 -13.34375 L 19.953125 -12.8125 L 20.15625 -12.03125 L 20.515625 -11.359375 L 20.875 -10.828125 L 22.21875 -7.59375 L 22.9375 -6.3125 L 23.4375 -5 L 24.390625 -3.15625 L 24.921875 -1.84375 L 25.171875 -1.03125 L 25.0625 -0.171875 L 24.0625 0 L 22.96875 0.03125 L 22.296875 -0.03125 Z M 12.890625 -8.765625 L 14.3125 -8.796875 L 14.84375 -9.09375 L 14.984375 -9.734375 L 13.3125 -13.625 L 12.8125 -13.921875 L 12.421875 -13.59375 L 10.75 -9.765625 L 10.796875 -9.09375 L 11.359375 -8.84375 L 12.171875 -8.90625 Z M 12.890625 -8.765625 "/></g></g></g><g fill="#ffffff" fill-opacity="1"><g transform="translate(113.103231, 205.735386)"><g><path d="M 12.21875 0.3125 L 11.53125 0.21875 L 10.75 -0.078125 L 10.046875 -0.671875 L 9.734375 -1.203125 L 8.3125 -4.578125 L 8.125 -5.296875 L 7.734375 -5.921875 L 7.140625 -7.140625 L 6.890625 -7.875 L 6 -9.734375 L 5.78125 -10.4375 L 2.59375 -17.609375 L 2.34375 -18.359375 L 1.953125 -18.890625 L 1.671875 -19.59375 L 1.484375 -20.265625 L 1.140625 -20.796875 L 0 -23.828125 L 0.28125 -24.53125 L 0.859375 -24.78125 L 2.203125 -24.78125 L 2.90625 -24.890625 L 4.9375 -24.8125 L 5.75 -24.453125 L 6.359375 -23.859375 L 7.34375 -21.15625 L 8.265625 -19.28125 L 10.046875 -14.65625 L 10.65625 -13.453125 L 10.796875 -12.78125 L 11.671875 -10.859375 L 12.0625 -10.796875 L 12.421875 -11.4375 L 13.140625 -13.421875 L 13.484375 -14.0625 L 13.625 -14.703125 L 13.953125 -15.296875 L 14.171875 -16.046875 L 17.46875 -23.859375 L 18.0625 -24.453125 L 18.84375 -24.921875 L 20.203125 -24.78125 L 20.90625 -24.8125 L 21.578125 -24.890625 L 22.21875 -24.78125 L 22.96875 -24.703125 L 23.609375 -24.5625 L 23.78125 -23.828125 L 23.53125 -22.859375 L 22.859375 -21.625 L 22.6875 -20.9375 L 22.078125 -19.671875 L 21.71875 -19.03125 L 18.640625 -11.71875 L 18 -10.578125 L 17.75 -9.796875 L 16.359375 -6.5625 L 15.96875 -5.921875 L 15.765625 -5.328125 L 15.40625 -4.578125 L 15.1875 -3.875 L 14.515625 -2.734375 L 14.3125 -1.984375 L 13.84375 -1 L 13.0625 0.03125 Z M 12.21875 0.3125 "/></g></g></g><g fill="#ffffff" fill-opacity="1"><g transform="translate(139.973988, 205.735386)"><g><path d="M 11.890625 0.140625 L 11.1875 -0.03125 L 9.4375 -0.03125 L 8.375 0.109375 L 6.953125 -0.03125 L 6.25 0.03125 L 5.140625 0.078125 L 4.125 -0.078125 L 3.4375 0 L 2.765625 0 L 2.0625 -0.3125 L 1.703125 -1.28125 L 1.8125 -4.546875 L 2.203125 -5.1875 L 4.546875 -5.890625 L 4.9375 -6.953125 L 4.828125 -17.859375 L 4.515625 -18.8125 L 3.828125 -19.234375 L 3.125 -19.234375 L 2.34375 -19.625 L 1.953125 -20.34375 L 2.03125 -21.015625 L 1.921875 -23.640625 L 2.265625 -24.5 L 2.984375 -24.84375 L 3.796875 -24.84375 L 4.46875 -24.75 L 7.390625 -24.75 L 8.09375 -24.890625 L 8.734375 -24.8125 L 13.03125 -24.8125 L 13.671875 -24.421875 L 14.09375 -23.75 L 14.0625 -20.234375 L 13.703125 -19.671875 L 12.953125 -19.390625 L 12.25 -19.28125 L 11.46875 -18.953125 L 11.21875 -18.140625 L 11.078125 -14.5625 L 11.21875 -12 L 11.140625 -11.21875 L 11.1875 -7.3125 L 11.078125 -6.640625 L 11.5 -5.828125 L 12.359375 -5.53125 L 13.09375 -5.53125 L 13.875 -5.140625 L 14.3125 -4.46875 L 14.3125 -0.953125 L 13.953125 -0.28125 L 13.3125 0.078125 Z M 11.890625 0.140625 "/></g></g></g><g fill="#ffffff" fill-opacity="1"><g transform="translate(159.035583, 205.735386)"><g><path d="M 9.546875 0.3125 L 8.09375 0.078125 L 6.703125 -0.421875 L 6 -0.640625 L 5.328125 -0.953125 L 4.828125 -1.484375 L 3.578125 -2.265625 L 3.125 -2.796875 L 2.625 -3.265625 L 1.953125 -4.578125 L 1.734375 -5.21875 L 1.59375 -5.921875 L 1.484375 -6.640625 L 1.78125 -7.390625 L 2.40625 -7.671875 L 5.140625 -7.8125 L 5.828125 -7.703125 L 6.46875 -7.78125 L 7.171875 -7.484375 L 8.34375 -6.21875 L 8.953125 -5.828125 L 9.546875 -5.5 L 11.359375 -5.328125 L 12 -5.4375 L 13.09375 -5.5 L 14.3125 -6.03125 L 14.765625 -6.5625 L 15.046875 -7.453125 L 14.84375 -8.34375 L 14.375 -8.765625 L 13.09375 -9.375 L 7.53125 -10.015625 L 6.25 -10.4375 L 3.828125 -11.75 L 2.515625 -13.390625 L 1.953125 -14.625 L 1.703125 -16.046875 L 1.671875 -17.140625 L 1.78125 -18.890625 L 2.40625 -20.84375 L 3.65625 -22.5 L 5.359375 -23.671875 L 6.5625 -24.390625 L 7.921875 -24.8125 L 8.5625 -24.921875 L 9.265625 -24.953125 L 10.046875 -25.171875 L 12.78125 -25.09375 L 14.171875 -24.8125 L 16.15625 -24.140625 L 18.5 -22.5 L 19.28125 -21.4375 L 20.265625 -19.59375 L 20.34375 -18.921875 L 20.484375 -18.25 L 20.203125 -17.640625 L 19.53125 -17.140625 L 18.890625 -17.21875 L 18.171875 -17.21875 L 17.21875 -17.28125 L 15.546875 -17.140625 L 14.765625 -17.609375 L 14.234375 -18.3125 L 13.625 -18.8125 L 13 -19.234375 L 12.359375 -19.421875 L 11.21875 -19.5625 L 10.078125 -19.53125 L 9.4375 -19.390625 L 8.875 -19.0625 L 8.34375 -18.671875 L 7.921875 -18.21875 L 7.734375 -17.25 L 7.875 -16.1875 L 8.40625 -15.6875 L 9.734375 -15.046875 L 11.609375 -14.65625 L 12.640625 -14.65625 L 13.390625 -14.515625 L 14.09375 -14.484375 L 14.796875 -14.375 L 17.578125 -13.53125 L 18.21875 -13.140625 L 18.78125 -12.84375 L 19.421875 -12.28125 L 20.34375 -11.21875 L 20.734375 -10.65625 L 21.265625 -8.59375 L 21.328125 -7.453125 L 21.125 -5.6875 L 20.90625 -5.078125 L 20.703125 -4.4375 L 20.3125 -3.65625 L 19.953125 -3.15625 L 18.921875 -2.09375 L 16.5 -0.640625 L 15.828125 -0.3125 L 15.1875 -0.25 L 14.484375 0.03125 L 13.78125 0.140625 L 13.0625 0.3125 L 12.359375 0.390625 Z M 9.546875 0.3125 "/></g></g></g><g fill="#ffffff" fill-opacity="1"><g transform="translate(184.628479, 205.735386)"><g><path d="M 11.890625 0.140625 L 11.1875 -0.03125 L 9.4375 -0.03125 L 8.375 0.109375 L 6.953125 -0.03125 L 6.25 0.03125 L 5.140625 0.078125 L 4.125 -0.078125 L 3.4375 0 L 2.765625 0 L 2.0625 -0.3125 L 1.703125 -1.28125 L 1.8125 -4.546875 L 2.203125 -5.1875 L 4.546875 -5.890625 L 4.9375 -6.953125 L 4.828125 -17.859375 L 4.515625 -18.8125 L 3.828125 -19.234375 L 3.125 -19.234375 L 2.34375 -19.625 L 1.953125 -20.34375 L 2.03125 -21.015625 L 1.921875 -23.640625 L 2.265625 -24.5 L 2.984375 -24.84375 L 3.796875 -24.84375 L 4.46875 -24.75 L 7.390625 -24.75 L 8.09375 -24.890625 L 8.734375 -24.8125 L 13.03125 -24.8125 L 13.671875 -24.421875 L 14.09375 -23.75 L 14.0625 -20.234375 L 13.703125 -19.671875 L 12.953125 -19.390625 L 12.25 -19.28125 L 11.46875 -18.953125 L 11.21875 -18.140625 L 11.078125 -14.5625 L 11.21875 -12 L 11.140625 -11.21875 L 11.1875 -7.3125 L 11.078125 -6.640625 L 11.5 -5.828125 L 12.359375 -5.53125 L 13.09375 -5.53125 L 13.875 -5.140625 L 14.3125 -4.46875 L 14.3125 -0.953125 L 13.953125 -0.28125 L 13.3125 0.078125 Z M 11.890625 0.140625 "/></g></g></g><g fill="#ffffff" fill-opacity="1"><g transform="translate(203.690077, 205.735386)"><g><path d="M 14.234375 0.46875 L 12.109375 0.359375 L 9.09375 -0.53125 L 8.40625 -0.8125 L 6 -2.09375 L 5.53125 -2.625 L 4.546875 -3.578125 L 2.875 -5.859375 L 2.515625 -6.5 L 2.3125 -7.234375 L 1.78125 -8.453125 L 1.390625 -10.6875 L 1.53125 -14.796875 L 1.8125 -16.328125 L 2.484375 -18.28125 L 2.796875 -18.890625 L 4.015625 -20.65625 L 4.96875 -21.71875 L 6.109375 -22.5 L 6.609375 -22.9375 L 8.40625 -24.0625 L 9.765625 -24.421875 L 10.40625 -24.703125 L 11.109375 -24.921875 L 11.828125 -25.0625 L 14.3125 -25.203125 L 15.96875 -25.171875 L 20.625 -23.71875 L 22.4375 -22.578125 L 23.96875 -21.1875 L 24.421875 -20.546875 L 24.84375 -20.125 L 25.3125 -19.53125 L 25.5625 -18.890625 L 26.203125 -17.71875 L 26.375 -16.890625 L 26.65625 -16.15625 L 26.9375 -14.84375 L 27.125 -12.390625 L 26.9375 -9.90625 L 26.796875 -9.125 L 26.59375 -8.5625 L 26.484375 -7.84375 L 26.234375 -7.171875 L 24.84375 -4.71875 L 24.390625 -4.078125 L 21.90625 -1.703125 L 18.75 -0.28125 L 17.390625 0.140625 Z M 13.234375 -5.78125 L 15.296875 -5.859375 L 15.96875 -6.03125 L 16.609375 -6.109375 L 17.1875 -6.421875 L 17.828125 -6.703125 L 18.921875 -7.5625 L 19.34375 -8.203125 L 19.671875 -8.734375 L 20.0625 -9.265625 L 20.375 -10.71875 L 20.59375 -12.5 L 20.453125 -14.015625 L 20.203125 -14.65625 L 19.984375 -15.375 L 19.703125 -16.015625 L 18.890625 -17.21875 L 17.78125 -18.03125 L 15.90625 -18.84375 L 14.203125 -18.953125 L 12.5625 -18.8125 L 11.828125 -18.640625 L 11.1875 -18.3125 L 10.15625 -17.609375 L 9.625 -17.140625 L 9.15625 -16.578125 L 8.84375 -15.96875 L 8.40625 -15.484375 L 8.203125 -14.84375 L 7.953125 -13.53125 L 7.921875 -12.453125 L 8.09375 -10.6875 L 8.765625 -8.703125 L 9.234375 -8.203125 L 9.578125 -7.703125 L 10.6875 -6.75 L 11.890625 -6.109375 L 12.53125 -6.03125 Z M 13.234375 -5.78125 "/></g></g></g><g fill="#ffffff" fill-opacity="1"><g transform="translate(235.104347, 205.735386)"><g><path d="M 20.9375 -0.609375 L 20.40625 -1.0625 L 19.484375 -2.09375 L 13.984375 -7.5625 L 13.390625 -7.953125 L 12.921875 -8.484375 L 10.40625 -10.90625 L 9.9375 -11.5 L 9.484375 -11.671875 L 9.234375 -11.078125 L 9.15625 -10.359375 L 9.125 -1.390625 L 8.765625 -0.28125 L 8.0625 0.078125 L 7.3125 0.109375 L 5.921875 0 L 5.140625 0.078125 L 3.6875 0 L 2.953125 -0.25 L 2.625 -0.921875 L 2.5625 -3.90625 L 2.625 -4.578125 L 2.5625 -10.40625 L 2.65625 -11 L 2.59375 -12.453125 L 2.625 -13.0625 L 2.625 -23.828125 L 2.953125 -24.5 L 3.765625 -24.84375 L 4.828125 -24.59375 L 5.640625 -24.171875 L 6.171875 -23.75 L 13.171875 -16.6875 L 14.171875 -15.90625 L 16.6875 -13.390625 L 17.21875 -13.140625 L 17.4375 -13.734375 L 17.5 -20.09375 L 17.4375 -20.875 L 17.53125 -22.359375 L 17.4375 -22.9375 L 17.46875 -23.671875 L 17.859375 -24.421875 L 18.53125 -24.8125 L 22.9375 -24.84375 L 23.640625 -24.453125 L 24 -23.75 L 24.109375 -18.8125 L 24 -17.96875 L 24 -14.453125 L 24.109375 -13.84375 L 24.03125 -0.890625 L 23.671875 -0.171875 L 22.890625 0.078125 L 21.90625 -0.03125 Z M 20.9375 -0.609375 "/></g></g></g><g fill="#eeb30d" fill-opacity="1"><g transform="translate(112.455841, 238.121953)"><g><path d="M 2.578125 0 L 2.578125 -6.84375 L 0.3125 -6.84375 L 0.3125 -7.59375 L 5.765625 -7.59375 L 5.765625 -6.84375 L 3.484375 -6.84375 L 3.484375 0 Z M 2.578125 0 "/></g></g></g><g fill="#eeb30d" fill-opacity="1"><g transform="translate(127.20297, 238.121953)"><g><path d="M 0.796875 0 L 0.796875 -7.59375 L 5.5 -7.59375 L 5.5 -6.84375 L 1.71875 -6.84375 L 1.71875 -4.203125 L 5.171875 -4.203125 L 5.171875 -3.453125 L 1.71875 -3.453125 L 1.71875 -0.75 L 5.5 -0.75 L 5.5 0 Z M 0.796875 0 "/></g></g></g><g fill="#eeb30d" fill-opacity="1"><g transform="translate(141.993454, 238.121953)"><g><path d="M 4.125 0.125 C 3.382812 0.125 2.742188 -0.0351562 2.203125 -0.359375 C 1.671875 -0.691406 1.253906 -1.148438 0.953125 -1.734375 C 0.660156 -2.328125 0.515625 -3.015625 0.515625 -3.796875 C 0.515625 -4.566406 0.660156 -5.242188 0.953125 -5.828125 C 1.253906 -6.421875 1.671875 -6.882812 2.203125 -7.21875 C 2.742188 -7.550781 3.382812 -7.71875 4.125 -7.71875 C 5 -7.71875 5.707031 -7.507812 6.25 -7.09375 C 6.789062 -6.675781 7.140625 -6.097656 7.296875 -5.359375 L 6.296875 -5.359375 C 6.171875 -5.828125 5.929688 -6.203125 5.578125 -6.484375 C 5.222656 -6.773438 4.738281 -6.921875 4.125 -6.921875 C 3.582031 -6.921875 3.109375 -6.796875 2.703125 -6.546875 C 2.304688 -6.296875 1.992188 -5.9375 1.765625 -5.46875 C 1.546875 -5 1.4375 -4.441406 1.4375 -3.796875 C 1.4375 -3.140625 1.546875 -2.578125 1.765625 -2.109375 C 1.992188 -1.648438 2.304688 -1.296875 2.703125 -1.046875 C 3.109375 -0.796875 3.582031 -0.671875 4.125 -0.671875 C 4.738281 -0.671875 5.222656 -0.804688 5.578125 -1.078125 C 5.929688 -1.359375 6.171875 -1.734375 6.296875 -2.203125 L 7.296875 -2.203125 C 7.140625 -1.472656 6.789062 -0.898438 6.25 -0.484375 C 5.707031 -0.078125 5 0.125 4.125 0.125 Z M 4.125 0.125 "/></g></g></g><g fill="#eeb30d" fill-opacity="1"><g transform="translate(158.47481, 238.121953)"><g><path d="M 0.796875 0 L 0.796875 -7.59375 L 1.71875 -7.59375 L 1.71875 -4.234375 L 5.65625 -4.234375 L 5.65625 -7.59375 L 6.5625 -7.59375 L 6.5625 0 L 5.65625 0 L 5.65625 -3.484375 L 1.71875 -3.484375 L 1.71875 0 Z M 0.796875 0 "/></g></g></g><g fill="#eeb30d" fill-opacity="1"><g transform="translate(174.511771, 238.121953)"><g><path d="M 0.796875 0 L 0.796875 -7.59375 L 1.71875 -7.59375 L 5.765625 -1.5 L 5.765625 -7.59375 L 6.671875 -7.59375 L 6.671875 0 L 5.765625 0 L 1.71875 -6.078125 L 1.71875 0 Z M 0.796875 0 "/></g></g></g><g fill="#eeb30d" fill-opacity="1"><g transform="translate(190.65712, 238.121953)"><g><path d="M 4.25 0.125 C 3.507812 0.125 2.859375 -0.0351562 2.296875 -0.359375 C 1.734375 -0.691406 1.296875 -1.15625 0.984375 -1.75 C 0.671875 -2.34375 0.515625 -3.023438 0.515625 -3.796875 C 0.515625 -4.566406 0.671875 -5.242188 0.984375 -5.828125 C 1.296875 -6.421875 1.734375 -6.882812 2.296875 -7.21875 C 2.859375 -7.550781 3.507812 -7.71875 4.25 -7.71875 C 5 -7.71875 5.65625 -7.550781 6.21875 -7.21875 C 6.78125 -6.882812 7.210938 -6.421875 7.515625 -5.828125 C 7.828125 -5.242188 7.984375 -4.566406 7.984375 -3.796875 C 7.984375 -3.023438 7.828125 -2.34375 7.515625 -1.75 C 7.210938 -1.15625 6.78125 -0.691406 6.21875 -0.359375 C 5.65625 -0.0351562 5 0.125 4.25 0.125 Z M 4.25 -0.671875 C 4.800781 -0.671875 5.289062 -0.796875 5.71875 -1.046875 C 6.144531 -1.296875 6.472656 -1.648438 6.703125 -2.109375 C 6.941406 -2.578125 7.0625 -3.140625 7.0625 -3.796875 C 7.0625 -4.441406 6.941406 -4.992188 6.703125 -5.453125 C 6.472656 -5.921875 6.144531 -6.28125 5.71875 -6.53125 C 5.289062 -6.78125 4.800781 -6.90625 4.25 -6.90625 C 3.695312 -6.90625 3.207031 -6.78125 2.78125 -6.53125 C 2.351562 -6.28125 2.019531 -5.921875 1.78125 -5.453125 C 1.550781 -4.992188 1.4375 -4.441406 1.4375 -3.796875 C 1.4375 -3.140625 1.550781 -2.578125 1.78125 -2.109375 C 2.019531 -1.648438 2.351562 -1.296875 2.78125 -1.046875 C 3.207031 -0.796875 3.695312 -0.671875 4.25 -0.671875 Z M 4.25 -0.671875 "/></g></g></g><g fill="#eeb30d" fill-opacity="1"><g transform="translate(207.83217, 238.121953)"><g><path d="M 0.796875 0 L 0.796875 -7.59375 L 1.71875 -7.59375 L 1.71875 -0.71875 L 5.25 -0.71875 L 5.25 0 Z M 0.796875 0 "/></g></g></g><g fill="#eeb30d" fill-opacity="1"><g transform="translate(222.199942, 238.121953)"><g><path d="M 4.25 0.125 C 3.507812 0.125 2.859375 -0.0351562 2.296875 -0.359375 C 1.734375 -0.691406 1.296875 -1.15625 0.984375 -1.75 C 0.671875 -2.34375 0.515625 -3.023438 0.515625 -3.796875 C 0.515625 -4.566406 0.671875 -5.242188 0.984375 -5.828125 C 1.296875 -6.421875 1.734375 -6.882812 2.296875 -7.21875 C 2.859375 -7.550781 3.507812 -7.71875 4.25 -7.71875 C 5 -7.71875 5.65625 -7.550781 6.21875 -7.21875 C 6.78125 -6.882812 7.210938 -6.421875 7.515625 -5.828125 C 7.828125 -5.242188 7.984375 -4.566406 7.984375 -3.796875 C 7.984375 -3.023438 7.828125 -2.34375 7.515625 -1.75 C 7.210938 -1.15625 6.78125 -0.691406 6.21875 -0.359375 C 5.65625 -0.0351562 5 0.125 4.25 0.125 Z M 4.25 -0.671875 C 4.800781 -0.671875 5.289062 -0.796875 5.71875 -1.046875 C 6.144531 -1.296875 6.472656 -1.648438 6.703125 -2.109375 C 6.941406 -2.578125 7.0625 -3.140625 7.0625 -3.796875 C 7.0625 -4.441406 6.941406 -4.992188 6.703125 -5.453125 C 6.472656 -5.921875 6.144531 -6.28125 5.71875 -6.53125 C 5.289062 -6.78125 4.800781 -6.90625 4.25 -6.90625 C 3.695312 -6.90625 3.207031 -6.78125 2.78125 -6.53125 C 2.351562 -6.28125 2.019531 -5.921875 1.78125 -5.453125 C 1.550781 -4.992188 1.4375 -4.441406 1.4375 -3.796875 C 1.4375 -3.140625 1.550781 -2.578125 1.78125 -2.109375 C 2.019531 -1.648438 2.351562 -1.296875 2.78125 -1.046875 C 3.207031 -0.796875 3.695312 -0.671875 4.25 -0.671875 Z M 4.25 -0.671875 "/></g></g></g><g fill="#eeb30d" fill-opacity="1"><g transform="translate(239.374997, 238.121953)"><g><path d="M 4.0625 0.125 C 3.351562 0.125 2.734375 -0.0351562 2.203125 -0.359375 C 1.671875 -0.691406 1.253906 -1.148438 0.953125 -1.734375 C 0.660156 -2.328125 0.515625 -3.007812 0.515625 -3.78125 C 0.515625 -4.550781 0.660156 -5.234375 0.953125 -5.828125 C 1.253906 -6.421875 1.679688 -6.882812 2.234375 -7.21875 C 2.785156 -7.550781 3.441406 -7.71875 4.203125 -7.71875 C 5.046875 -7.71875 5.75 -7.507812 6.3125 -7.09375 C 6.882812 -6.6875 7.253906 -6.125 7.421875 -5.40625 L 6.375 -5.40625 C 6.269531 -5.851562 6.023438 -6.210938 5.640625 -6.484375 C 5.265625 -6.753906 4.785156 -6.890625 4.203125 -6.890625 C 3.640625 -6.890625 3.148438 -6.765625 2.734375 -6.515625 C 2.328125 -6.265625 2.007812 -5.90625 1.78125 -5.4375 C 1.550781 -4.976562 1.4375 -4.425781 1.4375 -3.78125 C 1.4375 -3.132812 1.546875 -2.582031 1.765625 -2.125 C 1.992188 -1.664062 2.304688 -1.3125 2.703125 -1.0625 C 3.109375 -0.8125 3.570312 -0.6875 4.09375 -0.6875 C 4.90625 -0.6875 5.515625 -0.921875 5.921875 -1.390625 C 6.335938 -1.867188 6.578125 -2.519531 6.640625 -3.34375 L 4.453125 -3.34375 L 4.453125 -4.0625 L 7.5625 -4.0625 L 7.5625 0 L 6.734375 0 L 6.65625 -1.25 C 6.382812 -0.800781 6.046875 -0.457031 5.640625 -0.21875 C 5.242188 0.0078125 4.71875 0.125 4.0625 0.125 Z M 4.0625 0.125 "/></g></g></g><g fill="#eeb30d" fill-opacity="1"><g transform="translate(256.257399, 238.121953)"><g><path d="M 2.6875 0 L 2.6875 -2.890625 L 0.21875 -7.59375 L 1.25 -7.59375 L 3.140625 -3.75 L 5.046875 -7.59375 L 6.0625 -7.59375 L 3.59375 -2.890625 L 3.59375 0 Z M 2.6875 0 "/></g></g></g><g clip-path="url(#0c983fd4c5)"><path fill="#566981" d="M 94.339844 187.609375 L 94.339844 178.371094 C 96.210938 178.269531 97.621094 177.988281 98.570312 177.527344 C 99.519531 177.0625 100.34375 176.289062 101.035156 175.195312 C 101.726562 174.105469 102.203125 172.742188 102.460938 171.097656 C 102.664062 169.867188 102.769531 167.722656 102.769531 164.667969 C 102.769531 159.691406 103 156.21875 103.460938 154.257812 C 103.921875 152.292969 104.753906 150.714844 105.960938 149.523438 C 107.167969 148.328125 108.925781 147.386719 111.234375 146.695312 C 112.800781 146.230469 115.265625 146 118.625 146 L 120.667969 146 L 120.667969 155.199219 C 117.816406 155.199219 115.988281 155.363281 115.179688 155.679688 C 114.371094 156.003906 113.777344 156.488281 113.390625 157.144531 C 113.007812 157.796875 112.8125 158.921875 112.8125 160.511719 C 112.8125 162.128906 112.699219 165.195312 112.46875 169.710938 C 112.339844 172.253906 112.003906 174.3125 111.464844 175.890625 C 110.925781 177.46875 110.242188 178.769531 109.40625 179.796875 C 108.574219 180.824219 107.296875 181.886719 105.578125 182.992188 C 107.089844 183.863281 108.328125 184.882812 109.292969 186.050781 C 110.253906 187.21875 110.992188 188.636719 111.503906 190.304688 C 112.019531 191.972656 112.351562 194.207031 112.503906 197.003906 C 112.683594 201.261719 112.773438 203.984375 112.773438 205.164062 C 112.773438 206.855469 112.980469 208.035156 113.390625 208.703125 C 113.800781 209.371094 114.425781 209.878906 115.257812 210.226562 C 116.089844 210.570312 117.894531 210.746094 120.667969 210.746094 L 120.667969 219.984375 L 118.625 219.984375 C 115.160156 219.984375 112.503906 219.707031 110.65625 219.15625 C 108.808594 218.601562 107.25 217.6875 105.980469 216.402344 C 104.710938 215.121094 103.859375 213.535156 103.421875 211.648438 C 102.984375 209.761719 102.769531 206.792969 102.769531 202.738281 C 102.769531 198.015625 102.5625 194.949219 102.152344 193.539062 C 101.585938 191.484375 100.734375 190.015625 99.589844 189.132812 C 98.449219 188.246094 96.699219 187.738281 94.339844 187.609375 " fill-opacity="1" fill-rule="nonzero"/></g></svg>